<mxfile host="app.diagrams.net" modified="2024-05-14T12:23:10.096Z" agent="Mozilla/5.0 (Windows NT 10.0; Win64; x64; rv:125.0) Gecko/20100101 Firefox/125.0" version="24.4.0" etag="TWXcWo-3kOLul6W6AsBB" type="github">
  <diagram name="Sida-1" id="8ttOrVyH5oNZ2ZwthK9V">
    <mxGraphModel>
      <root>
        <mxCell id="0" />
        <mxCell id="1" parent="0" />
      </root>
    </mxGraphModel>
  </diagram>
</mxfile>
